# AST/ASF file generated using VICON BodyLanguage
# -----------------------------------------------
:version 1.10
:name VICON
:units
  mass 1.0
  length 0.45
  angle deg
:documentation
   .ast/.asf automatically generated from VICON data using
   VICON BodyBuilder and BodyLanguage model FoxedUp or BRILLIANT.MOD
:root
   order TX TY TZ RX RY RZ
   axis XYZ
   position 0 0 0  
   orientation 0 0 0 
:bonedata
  begin
     id 1 
     name lhipjoint
     direction 0.653368 -0.678499 0.335782 
     length 2.51848 
     axis 0 0 0  XYZ
  end
  begin
     id 2 
     name lfemur
     direction 0.34202 -0.939693 0  
     length 6.57749  
     axis 0 0 20  XYZ
    dof rx ry rz
    limits (-160.0 20.0)
           (-70.0 70.0)
           (-60.0 70.0)
  end
  begin
     id 3 
     name ltibia
     direction 0.34202 -0.939693 0   
     length 7.94618   
     axis 0 0 20   XYZ
    dof rx
    limits (-10.0 170.0)
  end
  begin
     id 4 
     name lfoot
     direction 0.0811271 -0.222895 0.971461   
     length 2.31339   
     axis -90 7.62852e-016 20   XYZ
    dof rx rz
    limits (-45.0 90.0)
           (-70.0 20.0)
  end
  begin
     id 5 
     name ltoes
     direction 1.53568e-011 -4.21885e-011 1   
     length 1.15935   
     axis -90 7.62852e-016 20   XYZ
    dof rx
    limits (-90.0 20.0)
  end
  begin
     id 6 
     name rhipjoint
     direction -0.640058 -0.688614 0.340788   
     length 2.48149  
     axis 0 0 0  XYZ 
  end
  begin
     id 7 
     name rfemur
     direction -0.34202 -0.939693 0   
     length 6.57875   
     axis 0 0 -20   XYZ
    dof rx ry rz
    limits (-160.0 20.0)
           (-70.0 70.0)
           (-70.0 60.0)
  end
  begin
     id 8 
     name rtibia
     direction -0.34202 -0.939693 0   
     length 7.977   
     axis 0 0 -20   XYZ
    dof rx
    limits (-10.0 170.0)
 end
 begin
     id 9 
     name rfoot
     direction -0.0979793 -0.269196 0.958089   
     length 2.19857  
     axis -90 -7.62852e-016 -20   XYZ
    dof rx rz
    limits (-45.0 90.0)
           (-20.0 70.0)
  end
  begin
     id 10 
     name rtoes
     direction -1.53556e-011 -4.21868e-011 1   
     length 1.09838   
     axis -90 -7.62852e-016 -20   XYZ
    dof rx
    limits (-90.0 20.0)
  end
  begin
     id 11 
     name lowerback
     direction 0.0149039 0.998517 -0.0523597   
     length 2.10809   
     axis 0 0 0   XYZ
    dof rx ry rz
    limits (-20.0 45.0)
           (-30.0 30.0)
           (-30.0 30.0)
  end
  begin
     id 12 
     name upperback
     direction -0.00882659 0.999418 -0.0329624   
     length 2.1102   
     axis 0 0 0   XYZ
    dof rx ry rz
    limits (-20.0 45.0)
           (-30.0 30.0)
           (-30.0 30.0)
  end
  begin
     id 13 
     name thorax
     direction -0.0165585 0.999826 -0.0085833   
     length 2.11039   
     axis 0 0 0   XYZ
    dof rx ry rz
    limits (-20.0 45.0)
           (-30.0 30.0)
           (-30.0 30.0)
  end
  begin
     id 14 
     name lowerneck
     direction -0.0130877 0.999911 0.00260353   
     length 1.73253   
     axis 0 0 0   XYZ
    dof rx ry rz
    limits (-20.0 45.0)
           (-30.0 30.0)
           (-30.0 30.0)
  end
  begin
     id 15 
     name upperneck
     direction -0.0348454 0.928205 -0.370435   
     length 1.66692   
     axis 0 0 0   XYZ
    dof rx ry rz
    limits (-20.0 45.0)
           (-30.0 30.0)
           (-30.0 30.0)
  end
  begin
     id 16
     name head
     direction -0.00807754 0.992494 -0.122026  
     length 1.72765  
     axis 0 0 0   XYZ
    dof rx ry rz
    limits (-20.0 45.0)
           (-30.0 30.0)
           (-30.0 30.0)
  end
  begin
     id 17 
     name lclavicle
     direction 0.987582 0.144023 0.0627671  
     length 3.49235  
     axis 0 0 0   XYZ
    dof ry rz
    limits (-20.0 10.0)
           (0.0 20.0)
  end
  begin
     id 18 
     name lhumerus
     direction 1 -4.48958e-011 -1.45183e-018   
     length 5.41917   
     axis 180 -30 -90   XYZ
    dof rx ry rz
    limits (-60.0 90.0)
           (-90.0 90.0)
           (-90.0 90.0)
  end
  begin
     id 19
     name lradius
     direction 1 -4.48999e-011 5.75106e-027   
     length 2.44373   
     axis 180 -30 -90   XYZ
    dof rx
    limits (-10.0 170.0)
  end
  begin
     id 20
     name lwrist
     direction 1 -4.48987e-011 1.53461e-026   
     length 1.22186   
     axis -1.09697e-014 90 90   XYZ
    dof ry
    limits (-180.0 0.0)
 end
  begin
     id 21 
     name lhand
     direction 1 -4.48881e-011 3.06923e-026   
     length 0.727502   
     axis -1.95843e-014 90 90   XYZ
    dof rx rz
    limits (-90.0 90.0)
           (-45.0 45.0)
  end
  begin
     id 22 
     name lfingers
     direction 1 -4.48907e-011 6.13845e-026   
     length 0.586531   
     axis -3.91686e-014 90 90   XYZ
    dof rx
    limits (0.0 90.0)
  end
  begin
     id 23
     name lthumb
     direction 0.707107 -6.3487e-011 0.707107   
     length 0.842145   
     axis -90 45 2.85299e-015   XYZ
    dof rx rz
    limits (-45.0 45.0)
           (-45.0 45.0)
  end
  begin
     id 24 
     name rclavicle
     direction -0.980998 0.169556 0.0943023   
     length 3.29272  
     axis 0 0 0   XYZ 
    dof ry rz
    limits (-10.0 20.0)
           (-20.0 0.0)
  end
  begin
     id 25 
     name rhumerus
     direction -1 -1.83355e-005 2.45537e-005  
     length 5.58976   
     axis 180 30 90   XYZ
    dof rx ry rz
    limits (-90.0 60.0)
           (-90.0 90.0)
           (-90.0 90.0)
  end
  begin
     id 26 
     name rradius
     direction -1 -4.48967e-011 5.97228e-027   
     length 2.4806   
     axis 180 30 90   XYZ
    dof rx
    limits (-10.0 170.0)
  end
  begin
     id 27 
     name rwrist
     direction -1 -4.48963e-011 1.53461e-026   
     length 1.2403   
     axis -1.09697e-014 -90 -90   XYZ
    dof ry
    limits (-180.0 0.0)
  end
  begin
     id 28
     name rhand
     direction -1 -4.48881e-011 3.06923e-026   
     length 0.816009   
     axis -1.95843e-014 -90 -90   XYZ
    dof rx rz
    limits (-90.0 90.0)
           (-45.0 45.0)
  end
  begin
     id 29
     name rfingers
     direction -1 -4.49018e-011 6.13845e-026   
     length 0.657887   
     axis -3.91686e-014 -90 -90   XYZ
    dof rx
    limits (0.0 90.0)
  end
  begin
     id 30
     name rthumb
     direction -0.707107 -6.34872e-011 0.707107   
     length 0.944599   
     axis -90 -45 -2.85299e-015   XYZ
    dof rx rz
    limits (-45.0 45.0)
           (-45.0 45.0)
  end
:hierarchy
  begin
    root lhipjoint rhipjoint lowerback
    lhipjoint lfemur
    lfemur ltibia
    ltibia lfoot
    lfoot ltoes
    rhipjoint rfemur
    rfemur rtibia
    rtibia rfoot
    rfoot rtoes
    lowerback upperback
    upperback thorax
    thorax lowerneck lclavicle rclavicle
    lowerneck upperneck
    upperneck head
    lclavicle lhumerus
    lhumerus lradius
    lradius lwrist
    lwrist lhand lthumb
    lhand lfingers
    rclavicle rhumerus
    rhumerus rradius
    rradius rwrist
    rwrist rhand rthumb
    rhand rfingers
  end

#!OML:ASF F:\VICON\USERDATA\INSTALL\rory3\rory3.ASF
:FULLY-SPECIFIED
:DEGREES
61
root 0.391191 16.4357 33.349 -151.306 2.55536 -175.73
lowerback -17.321 2.25908 5.02766
upperback -10.0771 4.18836 0.613699
thorax -0.879735 2.74714 -1.51633
lowerneck -11.84 1.50219 -1.0716
upperneck 36.3165 -2.1734 1.80922
head 14.5037 -2.22103 0.239733
rclavicle -3.39215e-014 -3.47873e-014
rhumerus -43.8946 5.46953 -83.5086
rradius 16.6398
rwrist -1.97857
rhand 21.6313 7.79278
rfingers 7.12502
rthumb 46.0516 -15.2803
lclavicle -3.39215e-014 -3.47873e-014
lhumerus -51.1238 7.86964 69.8043
lradius 18.463
lwrist -0.978738
lhand 26.5364 20.9013
lfingers 7.12502
lthumb 50.5679 41.8207
rfemur -43.2067 4.86222 34.874
rtibia 43.0952
rfoot -47.0959 -27.3768
rtoes 31.0173
lfemur -34.9081 26.9111 -24.9734
ltibia 64.2953
lfoot 40.4348 33.4828
ltoes 17.4204
62
root 0.390773 16.4382 33.3491 -151.345 2.7804 -175.965
lowerback -17.1279 2.2774 4.73889
upperback -10.0279 4.2292 0.499456
thorax -0.925478 2.76079 -1.47745
lowerneck -11.7987 1.53444 -0.901793
upperneck 36.2876 -2.14832 1.7564
head 14.4787 -2.19208 0.19299
rclavicle 7.83627e-015 -5.56597e-015
rhumerus -43.782 5.16495 -83.4322
rradius 16.6669
rwrist -1.86291
rhand 21.5901 7.70402
rfingers 7.12502
rthumb 46.0134 -15.3849
lclavicle 7.83627e-015 -5.56597e-015
lhumerus -50.9101 7.61176 69.9823
lradius 18.5044
lwrist -0.655858
lhand 26.5447 20.5662
lfingers 7.12502
lthumb 50.5755 41.4814
rfemur -43.2501 5.09737 34.4845
rtibia 43.2037
rfoot -47.326 -27.2541
rtoes 32.4518
lfemur -35.3486 26.9481 -25.1997
ltibia 65.0451
lfoot 40.2984 32.828
ltoes 15.8303
63
root 0.384503 16.4362 33.342 -151.382 2.72435 -175.963
lowerback -17.0704 2.25786 4.80782
upperback -9.88644 4.15119 0.521567
thorax -0.803942 2.70604 -1.50186
lowerneck -11.9886 1.59122 -0.771568
upperneck 36.3224 -2.02678 1.61803
head 14.5336 -2.13061 0.131738
rclavicle 1.32658e-014 1.70955e-014
rhumerus -43.576 5.08556 -83.4069
rradius 16.6915
rwrist -1.92169
rhand 21.4625 7.4436
rfingers 7.12502
rthumb 45.895 -15.6945
lclavicle 1.32658e-014 1.70955e-014
lhumerus -50.6437 7.84991 69.8709
lradius 18.4564
lwrist -0.704636
lhand 26.6332 20.4029
lfingers 7.12502
lthumb 50.6562 41.2741
rfemur -43.247 5.01776 34.5182
rtibia 43.3374
rfoot -47.3842 -27.3014
rtoes 32.9148
lfemur -35.7287 26.8908 -25.021
ltibia 65.817
lfoot 42.7445 31.3633
ltoes 12.1287
64
root 0.375624 16.4377 33.3259 -151.527 2.48128 -175.876
lowerback -16.9155 2.17243 4.95525
upperback -9.55232 3.92436 0.673627
thorax -0.538663 2.56171 -1.45551
lowerneck -12.857 1.62514 -0.835254
upperneck 36.5292 -1.85362 1.52038
head 14.8279 -2.04527 0.126423
rclavicle -3.44457e-014 -1.92821e-014
rhumerus -42.993 5.58878 -83.5818
rradius 16.6655
rwrist -2.42154
rhand 21.2244 7.24457
rfingers 7.12502
rthumb 45.674 -15.9845
lclavicle -3.44457e-014 -1.92821e-014
lhumerus -50.2007 8.49897 69.7443
lradius 18.4917
lwrist -0.901173
lhand 26.6351 20.5071
lfingers 7.12502
lthumb 50.658 41.3773
rfemur -43.0566 4.75342 34.7406
rtibia 43.4401
rfoot -47.5928 -27.3711
rtoes 31.8602
lfemur -35.9636 26.7402 -24.5893
ltibia 66.6301
lfoot 43.0364 30.5646
ltoes 11.9768
65
root 0.368793 16.4433 33.3059 -152.066 1.94178 -176.147
lowerback -16.4747 1.9989 4.98732
upperback -9.48375 3.67539 0.592051
thorax -0.699715 2.41286 -1.62239
lowerneck -12.2711 1.65944 -0.679611
upperneck 36.4047 -1.88931 1.49524
head 14.6329 -2.06486 0.0849144
rclavicle 9.80257e-015 -9.34288e-015
rhumerus -43.186 5.18339 -83.4924
rradius 16.483
rwrist -2.0553
rhand 21.0922 7.24269
rfingers 7.12502
rthumb 45.5511 -16.0364
lclavicle 9.80257e-015 -9.34288e-015
lhumerus -50.3417 7.94791 69.9246
lradius 18.6328
lwrist -0.426131
lhand 26.6738 20.7525
lfingers 7.12502
lthumb 50.6933 41.6035
rfemur -42.5189 4.52187 34.6044
rtibia 43.5613
rfoot -47.5841 -28.6625
rtoes 31.1976
lfemur -35.6625 26.1674 -24.1292
ltibia 67.3513
lfoot 42.2927 30.8269
ltoes 13.2594
66
root 0.365686 16.4404 33.3054 -151.866 2.15583 -176.068
lowerback -16.3856 2.03453 5.01024
upperback -9.55876 3.7403 0.623936
thorax -0.824435 2.4475 -1.59985
lowerneck -12.1561 1.70169 -0.762729
upperneck 36.3859 -1.82293 1.5161
head 14.5965 -2.05058 0.1189
rclavicle 3.02525e-015 1.98785e-016
rhumerus -43.2045 5.151 -83.5034
rradius 16.3887
rwrist -1.9461
rhand 20.887 7.26356
rfingers 7.12502
rthumb 45.3604 -16.0926
lclavicle 3.02525e-015 1.98785e-016
lhumerus -50.3303 8.1906 69.6638
lradius 18.4901
lwrist -0.800281
lhand 26.7266 20.5183
lfingers 7.12502
lthumb 50.7415 41.3428
rfemur -42.7852 4.90488 34.5314
rtibia 43.6483
rfoot -47.2598 -29.2179
rtoes 29.6823
lfemur -36.544 26.258 -24.1361
ltibia 68.2054
lfoot 42.3598 29.7023
ltoes 11.3856
67
root 0.358415 16.4431 33.2954 -152.054 1.96451 -176.239
lowerback -16.1281 1.94379 4.97299
upperback -9.4418 3.59343 0.625557
thorax -0.841167 2.35757 -1.60966
lowerneck -12.1721 1.70344 -0.90713
upperneck 36.3667 -1.75752 1.47822
head 14.5894 -2.0444 0.14006
rclavicle -2.4786e-015 5.96354e-015
rhumerus -43.1681 5.26754 -83.5421
rradius 16.5034
rwrist -1.97063
rhand 20.8063 7.48736
rfingers 7.12502
rthumb 45.2855 -15.8989
lclavicle -2.4786e-015 5.96354e-015
lhumerus -50.1446 8.18007 69.8076
lradius 18.5357
lwrist -0.662216
lhand 26.6247 20.6363
lfingers 7.12502
lthumb 50.6484 41.5117
rfemur -42.5755 4.97936 34.322
rtibia 43.6716
rfoot -47.3888 -29.6504
rtoes 30.2114
lfemur -36.9047 25.964 -23.9614
ltibia 69.0181
lfoot 42.3558 28.9291
ltoes 9.41647
68
root 0.34711 16.4484 33.2836 -152.196 1.79206 -176.297
lowerback -15.972 1.92643 5.09221
upperback -9.30909 3.51997 0.624761
thorax -0.778837 2.30197 -1.6911
lowerneck -12.1218 1.69738 -0.951585
upperneck 36.278 -1.69718 1.38597
head 14.5336 -2.0299 0.122615
rclavicle 7.60973e-015 -1.23246e-014
rhumerus -43.1501 5.67273 -83.8488
rradius 16.7347
rwrist -2.4775
rhand 20.9844 7.36019
rfingers 7.12502
rthumb 45.451 -15.9595
lclavicle 7.60973e-015 -1.23246e-014
lhumerus -49.9014 8.26744 69.8683
lradius 18.4788
lwrist -0.696134
lhand 26.3282 20.4636
lfingers 7.12502
lthumb 50.3777 41.4858
rfemur -42.3859 4.75349 34.2971
rtibia 43.6527
rfoot -47.3932 -29.4558
rtoes 30.0714
lfemur -37.2844 25.6501 -23.6914
ltibia 69.8641
lfoot 42.6649 28.098
ltoes 9.65507
69
root 0.334036 16.4289 33.272 -152.186 1.80155 -176.14
lowerback -15.8354 1.94784 5.33066
upperback -9.37103 3.54097 0.696539
thorax -0.912598 2.30692 -1.75611
lowerneck -12.0016 1.82 -0.922367
upperneck 36.4849 -1.56026 1.27688
head 14.5996 -2.00724 0.0870215
rclavicle -2.00586e-014 1.0138e-014
rhumerus -43.4535 6.00793 -84.0714
rradius 16.9655
rwrist -2.88909
rhand 21.0775 7.62784
rfingers 7.12502
rthumb 45.5375 -15.6568
lclavicle -2.00586e-014 1.0138e-014
lhumerus -49.9986 8.17597 69.9421
lradius 18.4981
lwrist -0.65834
lhand 26.2987 20.3584
lfingers 7.12502
lthumb 50.3507 41.395
rfemur -42.232 4.1068 34.7521
rtibia 43.5876
rfoot -46.2862 -29.6999
rtoes 29.2259
lfemur -37.9125 25.4992 -23.3925
ltibia 70.8041
lfoot 42.3511 27.336
ltoes 9.19553
70
root 0.318119 16.4242 33.2422 -151.946 1.96633 -175.897
lowerback -16.053 2.03839 5.6359
upperback -9.41657 3.63599 0.784365
thorax -0.838757 2.35873 -1.80995
lowerneck -11.8656 1.91997 -0.977818
upperneck 36.583 -1.43612 1.25421
head 14.612 -1.98163 0.103254
rclavicle -2.77677e-014 -1.17283e-014
rhumerus -43.6811 6.45778 -84.3236
rradius 17.2325
rwrist -3.39398
rhand 21.0202 7.73067
rfingers 7.12502
rthumb 45.4843 -15.5756
lclavicle -2.77677e-014 -1.17283e-014
lhumerus -50.0626 8.53303 69.6455
lradius 18.434
lwrist -1.02598
lhand 26.4449 20.3533
lfingers 7.12502
lthumb 50.4843 41.318
rfemur -42.3307 3.86715 35.0362
rtibia 43.6012
rfoot -45.7864 -29.8546
rtoes 27.81
lfemur -38.7603 25.4327 -23.1847
ltibia 71.6513
lfoot 41.6896 27.115
ltoes 9.39576
